<svg xmlns="http://www.w3.org/2000/svg" viewBox="0 0 69.2 56.76"><defs><style>.cls-1{opacity:0.14;}.cls-2{fill:#fff;}</style></defs><g id="Layer_2" data-name="Layer 2"><g id="Layer_1-2" data-name="Layer 1"><g class="cls-1"><path class="cls-2" d="M0,41c.29-.71.57-1.42.89-2.11q5-11.1,10-22.17c.61-1.36,1.11-1.53,2.46-.94.68.31,1.37.6,2,.93a1.27,1.27,0,0,1,.69,1.8c-.08.2-.17.38-.26.59L7.29,38c-.15.27-.31.53-.49.79l.9.44,19,8.61c1.45.65,1.62,1.11,1,2.57-.29.65-.57,1.32-.9,2A1.28,1.28,0,0,1,25,53c-.18-.07-.36-.16-.53-.24l-23-10.41C1.07,42.21.69,42,.31,41.8Z"/><path class="cls-2" d="M35,.89c0,.26.07.57.1.88q2.12,26.46,4.21,52.9c.11,1.36-.26,1.8-1.59,1.91l-1.64.16c-1.31.11-1.79-.3-1.92-1.62q-.49-6.12-1-12.24L30,2.14c-.11-1.39.25-1.83,1.62-2,.66-.06,1.33-.13,2-.17A1.34,1.34,0,0,1,35,.89Z"/><path class="cls-2" d="M62.61,17.91a10.54,10.54,0,0,1-1.1-.38L42.56,9c-1.44-.65-1.61-1.12-1-2.57.3-.66.58-1.33.91-2a1.28,1.28,0,0,1,1.79-.67c.21.08.39.18.59.27l23,10.38c1.47.66,1.65,1.12,1,2.56L58.4,40c-.64,1.42-1.11,1.6-2.52,1-.65-.29-1.32-.57-2-.89a1.28,1.28,0,0,1-.71-1.84c.07-.21.17-.39.26-.6L62,18.78A10.22,10.22,0,0,1,62.61,17.91Z"/></g></g></g></svg>