<svg xmlns="http://www.w3.org/2000/svg" viewBox="0 0 40.33 50.32"><defs><style>.cls-1{opacity:0.14;}.cls-2{fill:#fff;}</style></defs><g id="Layer_2" data-name="Layer 2"><g id="Layer_1-2" data-name="Layer 1"><g class="cls-1"><path class="cls-2" d="M28.23,42.09,27.08,36.6H17.29c.57,2.25,1.15,4.25,1.57,6.28a3.42,3.42,0,0,1-.15,2.32,2,2,0,0,1-2,.14,3.09,3.09,0,0,1-.45-2.3c.41-2,1-4,1.71-6.35H14.3v5.86h-.46c0-1.09,0-2.17,0-3.25.08-1.55.07-2.74-1.93-3.33-1.07-.32-1.78-1.86-2.37-2.53l-4,.31.12-2.4,4.05.6V24.67c-2.46.61-4.68,1.22-6.93,1.65a3.12,3.12,0,0,1-2.31-.38,2,2,0,0,1,.07-2,2.53,2.53,0,0,1,2.08-.33c2.26.49,4.5,1.15,7.41,1.91l-.43-4.28A13.38,13.38,0,0,1,6.76,22a3.54,3.54,0,0,1-2.26-.64,1.9,1.9,0,0,1,.12-1.78,5,5,0,0,1,2.32-.34c.21,0,.4.46.65.56a4.74,4.74,0,0,0,1.78.4c.18,0,.58-1,.43-1.21a2.55,2.55,0,0,0-1.52-.94c-1.89-.2-3.79-.24-5.66-.6,3.12.2,6.16,1.37,8.76-2,1.41-1.83,1.53-3,.5-4.89-.42-.75-.2-1.84-.27-2.78l2.2,0a24.33,24.33,0,0,1-.2,2.84c-.21,1.2-.59,2.37-1,4.15,2.79,0,5.11.11,7.4-.08A2.32,2.32,0,0,0,21.44,13a71.82,71.82,0,0,0,0-8.3c0-.75-1-1.4-1.21-2.19A3,3,0,0,1,20.51.26a2,2,0,0,1,2,0,2.13,2.13,0,0,1,.45,2c-2.56,4-.57,8.17-1.22,12.32h5.38l1-5h0c-.6,4.07,1.93,8.1,4.87,8.72-.42.53-1.53,1.34-1.47,2.05a2.85,2.85,0,0,0,1.92,2c1.33,0,2.67-.73,4-1a5.13,5.13,0,0,1,2.55,0c.26.08.37,1.89.14,2a4.66,4.66,0,0,1-2.54.27c-1.92-.33-3.82-.84-6.38-1.42.27,1.93.42,3,.57,4.1a14.17,14.17,0,0,1,2.7-1,3.61,3.61,0,0,1,2.3.37A1.85,1.85,0,0,1,37,27.38a3.08,3.08,0,0,1-2.24.65,13.94,13.94,0,0,1-3.06-1.65v4.83l2.83.36-2.59.33.53.64c-1.34,1.32-3.17,2.43-3.88,4s-.26,3.66-.33,5.52Zm1.66-16.27c0-2.27-.06-4.54,0-6.8.07-1.87-.64-2.72-2.57-2.7q-6.66.09-13.32,0c-1.93,0-2.65.88-2.64,2.7,0,4.44,0,8.88,0,13.32,0,1.69.71,2.55,2.48,2.54q6.8,0,13.61,0c1.78,0,2.47-.83,2.43-2.54C29.85,30.17,29.89,28,29.89,25.82Z"/><path class="cls-2" d="M28.23,42.09c2,4.42,4.08,3.69,8,3.46a10.52,10.52,0,0,1,2.92.7l-.78,2c-.89-.48-1.74-1-2.67-1.43A8.8,8.8,0,0,0,32.79,46c-2.64-.1-4.21-1.26-4.56-3.93Z"/><path class="cls-2" d="M8.54,46.37a16,16,0,0,1-2.78,1.2,2.87,2.87,0,0,1-2.26-.43,2,2,0,0,1,.12-2,2.77,2.77,0,0,1,2.26-.25A14.66,14.66,0,0,1,8.54,46.37Z"/><path class="cls-2" d="M1.52,34a10.68,10.68,0,0,1,.89,2.28,4.64,4.64,0,0,1-.19,2.56,2.82,2.82,0,0,1-2,0,4.15,4.15,0,0,1-.07-2.56A9.65,9.65,0,0,1,1.52,34Z"/><path class="cls-2" d="M28.17,9.57c1.48-.58,2.92-1.26,4.44-1.71a2.42,2.42,0,0,1,2.07.27,2.11,2.11,0,0,1,.15,2,2.35,2.35,0,0,1-2,.55c-1.58-.26-3.12-.76-4.67-1.16Z"/><path class="cls-2" d="M39,35l.39,4.18-2.14,0L37.65,35Z"/><path class="cls-2" d="M22.72,50.32c-.86-1.07-1.85-1.8-1.74-2.28.18-.76,1.08-1.35,1.68-2,.56.61,1.47,1.17,1.56,1.84S23.46,49.18,22.72,50.32Z"/></g></g></g></svg>