<svg xmlns="http://www.w3.org/2000/svg" viewBox="0 0 38.84 49.2"><defs><style>.cls-1{opacity:0.14;}.cls-2{fill:#fff;}</style></defs><g id="Layer_2" data-name="Layer 2"><g id="Layer_1-2" data-name="Layer 1"><g class="cls-1"><path class="cls-2" d="M18.2,24.7,4.19,7.06C3.07,5.66,2,4.22.82,2.87A2.92,2.92,0,0,1,.12,0H35.8l.94,12c-.86.34-1.28.21-1.5-.73A40,40,0,0,0,33.91,7a4,4,0,0,0-3.12-2.74,29.62,29.62,0,0,0-5.15-.86c-5.31-.11-10.63,0-16.18,0L24.62,22.51,7.92,42.79h1.4c6.22,0,12.44-.11,18.66.08a8.08,8.08,0,0,0,8.31-5.07c.44-.93.92-1.83,1.44-2.84l1.11.25c-.76,4.7-1.51,9.32-2.26,14H.12a4,4,0,0,1,1-3.78c5.25-6.24,10.4-12.56,15.59-18.85Z"/></g></g></g></svg>