<svg xmlns="http://www.w3.org/2000/svg" viewBox="0 0 46.66 46.81"><defs><style>.cls-1{opacity:0.14;}.cls-2{fill:#fff;}</style></defs><g id="Layer_2" data-name="Layer 2"><g id="Layer_1-2" data-name="Layer 1"><g class="cls-1"><path class="cls-2" d="M23.29,46.81H3.48C1.14,46.81,0,45.69,0,43.35q0-20,0-40C0,1.11,1.16,0,3.44,0H43.17c2.32,0,3.48,1.14,3.49,3.45V43.31c0,2.37-1.16,3.5-3.56,3.5ZM44.44,23.52V3.82c0-1.56-.08-1.63-1.62-1.63h-39c-1.48,0-1.55.07-1.55,1.56V43c0,1.51.06,1.57,1.55,1.57h39c1.57,0,1.63-.06,1.63-1.62Z"/><path class="cls-2" d="M40.93,24.58l-3.2,2.06c-.76-1.06-1.63-2-3-1.7a2.48,2.48,0,0,0-1.63,1.15,2.64,2.64,0,0,0,.47,2,5.19,5.19,0,0,0,1.84,1.12c1.29.66,2.65,1.2,3.9,1.94,2.45,1.45,3.18,3.73,2.78,6.43-.32,2.23-2.09,3.88-4.67,4.49a8.17,8.17,0,0,1-9.6-4.22L31,35.74c.46.59.86,1.14,1.32,1.65a3.41,3.41,0,0,0,3.77,1A2.91,2.91,0,0,0,37.66,37a1.72,1.72,0,0,0-.76-2.21c-.95-.57-2-1-3-1.51a24,24,0,0,1-2.81-1.56A5.86,5.86,0,0,1,29,25.12a5.72,5.72,0,0,1,5.18-3.91C37,21,39.39,21.82,40.93,24.58Z"/><path class="cls-2" d="M25.51,21.26c0,5.23.16,10.34-.05,15.43s-4.6,6.22-8.14,5.41a7.58,7.58,0,0,1-5.09-4.19l3.32-2a18.29,18.29,0,0,0,1.62,1.49,2.74,2.74,0,0,0,2.94.26c.91-.46,1-1.39,1-2.3V21.26Z"/></g></g></g></svg>