<svg xmlns="http://www.w3.org/2000/svg" viewBox="0 0 36.31 43.82"><defs><style>.cls-1{opacity:0.14;}.cls-2{fill:#fff;}</style></defs><g id="Layer_2" data-name="Layer 2"><g id="Layer_1-2" data-name="Layer 1"><g class="cls-1"><path class="cls-2" d="M16.23,43.81c-1.3-.17-2.62-.29-3.91-.51a21.23,21.23,0,0,1-8.91-3.38A11.86,11.86,0,0,1,1,37.52a4.72,4.72,0,0,1-.89-2.31c-.13-1.51,0-3,0-4.58.78.66,1.5,1.35,2.3,1.92a22.61,22.61,0,0,0,9.42,3.64A35.27,35.27,0,0,0,28,35.39a18,18,0,0,0,7.46-4c.24-.22.47-.46.77-.76,0,.21,0,.36.05.51,0,1-.06,2,0,2.95a6,6,0,0,1-2.47,5.18,17.45,17.45,0,0,1-7.49,3.53c-1.89.44-3.83.62-5.76.92l-.55.11Z"/><path class="cls-2" d="M18.61,17.51A30.28,30.28,0,0,1,5.72,14.93,10.57,10.57,0,0,1,.86,11a4,4,0,0,1,.37-5.11A12,12,0,0,1,6,2.41,30.34,30.34,0,0,1,20.39.08a27.79,27.79,0,0,1,10,2.37,10.86,10.86,0,0,1,5.12,4.1,4,4,0,0,1-.34,5,12.09,12.09,0,0,1-4.8,3.57,27.12,27.12,0,0,1-9.47,2.29C20,17.44,19.1,17.48,18.61,17.51Z"/><path class="cls-2" d="M0,21.53c3.8,3.85,8.53,5.28,13.59,5.91A34.54,34.54,0,0,0,29,26.08a17.71,17.71,0,0,0,7.28-4.46c0,.2,0,.34,0,.49,0,1.05-.06,2.1,0,3.15a6,6,0,0,1-2.52,5.21A18.49,18.49,0,0,1,26.27,34a33.09,33.09,0,0,1-15.14.23,19.4,19.4,0,0,1-8.54-3.76A6.1,6.1,0,0,1,0,25.16C.09,24,0,22.81,0,21.53Z"/><path class="cls-2" d="M36.31,13.28c0,1.22,0,2.48,0,3.74a5.86,5.86,0,0,1-2.42,4.37,18.54,18.54,0,0,1-7.43,3.55,32.1,32.1,0,0,1-10.09,1A26.44,26.44,0,0,1,4.43,22.73,8.83,8.83,0,0,1,.6,19a4.4,4.4,0,0,1-.52-1.66c-.07-1.4,0-2.8,0-4.22.78.66,1.51,1.35,2.31,1.93a22.62,22.62,0,0,0,8.86,3.53,34.77,34.77,0,0,0,8.27.64c4.76-.19,9.38-1,13.53-3.53C34.19,15,35.21,14.11,36.31,13.28Z"/></g></g></g></svg>