<svg xmlns="http://www.w3.org/2000/svg" viewBox="0 0 46.1 51.7"><defs><style>.cls-1{opacity:0.14;}.cls-2{fill:#fff;}</style></defs><g id="Layer_2" data-name="Layer 2"><g id="Layer_1-2" data-name="Layer 1"><g class="cls-1"><path class="cls-2" d="M46.09,25.84c0,3.32,0,6.64,0,10a5.05,5.05,0,0,1-2.81,5C37.4,44.07,31.56,47.48,25.72,50.9a4.85,4.85,0,0,1-5.33,0Q11.51,45.72,2.58,40.62A4.78,4.78,0,0,1,0,36.1Q0,25.85,0,15.63A4.88,4.88,0,0,1,2.69,11Q11.57,6,20.38.8a4.86,4.86,0,0,1,5.33,0C31.58,4.23,37.47,7.66,43.4,11a4.93,4.93,0,0,1,2.7,4.74C46.06,19.11,46.09,22.48,46.09,25.84Zm-9.84-7.67c-2.44-5.48-10-8.77-16.54-7.32a15.38,15.38,0,0,0,0,30c6.54,1.45,14.09-1.84,16.54-7.3l-6.55-3.82c-3.64,4.26-8.39,4.87-12,1.66a7.76,7.76,0,0,1-.3-11,7.5,7.5,0,0,1,5.4-2.4A8,8,0,0,1,30,22ZM35,24.88l-1.5.21v1.6l1.41.22.15,1.47h1.55l.15-1.52,1.6-.21V25l-1.51-.24-.16-1.46H35.17Zm9.67,1.83V25l-1.52-.19L43,23.31H41.47l-.15,1.55-1.52.23v1.58l1.52.24.15,1.47H43l.15-1.56Z"/></g></g></g></svg>