<svg xmlns="http://www.w3.org/2000/svg" viewBox="0 0 42.68 42.7"><defs><style>.cls-1{opacity:0.14;}.cls-2{fill:#fff;}</style></defs><g id="Layer_2" data-name="Layer 2"><g id="Layer_1-2" data-name="Layer 1"><g class="cls-1"><path class="cls-2" d="M17.44.05C21.73.06,26-.13,30.32.16A15.32,15.32,0,0,1,36.85,2a11,11,0,0,1,5.24,7.51,20.71,20.71,0,0,1,.58,4.7c0,4.7,0,9.4,0,14.1,0,.14,0,.28,0,.42-.16.3-.38.28-.6.07-.74-.73-1.46-1.48-2.21-2.19a.84.84,0,0,1-.2-.69c0-3.2,0-6.39,0-9.59,0-.72-.22-1.41-.19-2.13a16.45,16.45,0,0,0-1.1-5.89,7.22,7.22,0,0,0-3.93-3.95,13.79,13.79,0,0,0-4.56-1c-.42,0-.83-.11-1.25-.09a76,76,0,0,0-8.13-.17,1.23,1.23,0,0,1-.88-.32c-.71-.69-1.41-1.39-2.1-2.11C17.33.47,17.22.28,17.44.05Z"/><path class="cls-2" d="M29.57,42.61a1.59,1.59,0,0,1-.65.07c-5.05,0-10.1,0-15.16,0a18.28,18.28,0,0,1-6.23-1.16,10.59,10.59,0,0,1-6.66-7.3A19.7,19.7,0,0,1,0,28.71c0-3,0-5.95,0-8.93.27-.28.51-.1.72.09.57.54,1.11,1.11,1.68,1.67a1.06,1.06,0,0,0,.25-.86V15a4,4,0,0,1,0-.6c0-.2.12-.36.38-.26a1.47,1.47,0,0,1,.14.94c0,4.53,0,9.06,0,13.59a15,15,0,0,0,1.08,5.77,7.21,7.21,0,0,0,4,4,14.31,14.31,0,0,0,4.47,1c1.83.16,3.66.07,5.49.08,3.13,0,6.27,0,9.4,0a2.32,2.32,0,0,1,.87.08c.27.33,0,.41-.23.45-.43.05-.86,0-1.29,0-.14,0-.31,0-.38.11s.07.28.18.38c.46.48.93.94,1.4,1.41a1.55,1.55,0,0,0,.9.43C29.3,42.39,29.51,42.36,29.57,42.61Z"/><path class="cls-2" d="M29.57,42.61a2,2,0,0,1-1.79-.79c-.47-.53-1-1-1.5-1.52-.11-.1-.26-.22-.17-.39s.24-.1.38-.11a12.53,12.53,0,0,0,2.12-.07c.09-.26.31-.22.5-.25.82-.12,1.64-.14,2.45-.29a11,11,0,0,0,3.81-1.3A7.9,7.9,0,0,0,39,32.53a20.46,20.46,0,0,0,.49-4.61q0-6.5,0-13c0-.29-.12-.64.24-.84a1.61,1.61,0,0,1,.07.69c0,3.64,0,7.27,0,10.91a1.18,1.18,0,0,0,.42,1c.65.57,1.24,1.21,1.85,1.83.17.16.33.34.6.2a2.23,2.23,0,0,1-.06.85c-.22,0-.35-.09-.49-.23-.61-.57-1.18-1.18-1.65-1.63.52.51,1.14,1.16,1.8,1.78.14.13.19.31.32.43-.23,3.27-1,6.35-3.26,8.85A11.17,11.17,0,0,1,33.56,42,16.38,16.38,0,0,1,29.57,42.61Z"/><path class="cls-2" d="M17.44.05a.77.77,0,0,0,.31.54c.7.71,1.41,1.4,2.1,2.12a.88.88,0,0,0,.72.22H28A1.44,1.44,0,0,1,28.7,3c-.06.21-.24.21-.41.23s-.5,0-.75,0c-4.48,0-9,0-13.44,0a17.43,17.43,0,0,0-4.37.59A8.29,8.29,0,0,0,4.93,7c-.28.14-.47,0-.65-.2C3.83,6.36,3.4,5.92,3,5.48c-.23-.23-.35-.45-.07-.75a1.55,1.55,0,0,0,.29-.52A7.81,7.81,0,0,1,5.68,2.1a16.21,16.21,0,0,1,6.83-2A42.66,42.66,0,0,1,17.44.05Z"/><path class="cls-2" d="M3.18,4.21c0,.1,0,.24-.05.31-.38.47-.09.76.24,1.07s.93.89,1.39,1.35c.21.18.08.37,0,.54a12.89,12.89,0,0,0-1.41,5.34c0,.33-.09.64-.12,1,0,.14,0,.28-.22.31a1.42,1.42,0,0,0-.08.64c0,2,0,4,0,6,0,.49-.31.95,0,1.44l-.11,0-.62-.59L.71,20.14A1,1,0,0,0,0,19.78C0,16.52-.19,13.24.49,10A13.13,13.13,0,0,1,2.7,4.77C2.85,4.57,3,4.39,3.18,4.21Z"/><path class="cls-2" d="M42.57,29.93a1.63,1.63,0,0,1-.65-.51L40,27.52c0-.06-.11-.11-.15-.17s-.1-.21,0-.29.17,0,.24.08c.45.45.89.9,1.35,1.35l1.13,1.09Z"/><path class="cls-2" d="M34.74,12.75A5.06,5.06,0,0,0,25,11.16a5,5,0,0,0,1.47,5.73c.24.2.29.34.09.6a5.47,5.47,0,0,1-3.84,2.29,34.92,34.92,0,0,1-4.46.06,6.61,6.61,0,0,0-3.41.78c-.32.18-.36,0-.36-.25,0-.62,0-1.24,0-1.86a.77.77,0,0,1,.56-.89,5.07,5.07,0,1,0-4.11,0,.81.81,0,0,1,.59.88c0,1.79,0,3.57,0,5.36a.7.7,0,0,1-.49.76A5.35,5.35,0,1,0,16,34a5.35,5.35,0,0,0-.57-9.49c-.42-.19-.38-.32-.12-.6a3.21,3.21,0,0,1,2.33-1.1c.75,0,1.49,0,2.24,0h0c.7,0,1.4,0,2.09,0a8.37,8.37,0,0,0,7.2-4A1.62,1.62,0,0,1,30.5,18,5,5,0,0,0,34.74,12.75ZM10.92,13A2.09,2.09,0,1,1,13,15.11,2.1,2.1,0,0,1,10.92,13Zm4.76,16.39a2.38,2.38,0,0,1-2.4,2.38A2.38,2.38,0,1,1,13.33,27,2.35,2.35,0,0,1,15.68,29.41Zm14-14.3a2.09,2.09,0,1,1,0-4.17,2.09,2.09,0,0,1,0,4.17Z"/></g></g></g></svg>