<svg style="fill:white" viewBox="0 0 256 256" xmlns="http://www.w3.org/2000/svg"><path d="m223.99951 67.99756a36 36 0 1 0 -44 35.09289v.9076a16.01844 16.01844 0 0 1 -15.999 16l-72.001.00146a31.80291 31.80291 0 0 0 -16 4.29492v-21.204a36 36 0 1 0 -16 0v49.81667a36 36 0 1 0 16 0v-.90759a16.01865 16.01865 0 0 1 16-16l72.001-.00146a32.03646 32.03646 0 0 0 31.999-32v-.9076a36.05514 36.05514 0 0 0 28-35.09289zm-176 0a20 20 0 1 1 20 20 20.0226 20.0226 0 0 1 -20-20zm40 120.00244a20 20 0 1 1 -20-20 20.0226 20.0226 0 0 1 20 20zm100-100.00244a20 20 0 1 1 20-20 20.0226 20.0226 0 0 1 -20 20z"/></svg>